# xmcd
#
# Track frame offsets: 
#        182
#        14910
#        31107
#        51927
#        65035
#        75397
#        89495
#        105107
#        116060
#        128605
#        139460
#        153370
#
# Disc length: 2185 seconds
#
# Revision: 2
# Processed by: cddbd v1.5.2PL0 Copyright (c) Steve Scherf et al.
# Submitted via: ExactAudioCopy v0.95b4
#
DISCID=9c08870c
DTITLE=Roger Whittaker - Love Songs
DYEAR=1992
DGENRE=Easy Listening
TTITLE0=You Needed Me
TTITLE1=I'll Be Seeing You
TTITLE2=Try To Remember
TTITLE3=Unchained Memory
TTITLE4=Red Roses For a Blue Lady
TTITLE5=There Goes My Everything
TTITLE6=The Twelfth Of Never
TTITLE7=Sentimental Journey
TTITLE8=Somewhere My Love
TTITLE9=I Love You Because
TTITLE10=Stranger On the Shore
TTITLE11=I Can't Help It (If I'm Still In Love With You)
EXTD=
EXTT0=
EXTT1=
EXTT2=
EXTT3=
EXTT4=
EXTT5=
EXTT6=
EXTT7=
EXTT8=
EXTT9=
EXTT10=
EXTT11=
PLAYORDER=
